<?xml version="1.0" encoding="UTF-8"?>
<svg id="Layer_1" data-name="Layer 1" xmlns="http://www.w3.org/2000/svg" viewBox="0 0 10 10" width="5" height="5">
  <defs>
    <style>
      .cls-1 {
        fill: #3a3e5a;
        stroke-width: 0px;
      }
    </style>
  </defs>
  <path class="cls-1" d="m2.625,9.005c-0.675-.33-1.195-.785-1.565-1.365-.37-.58-.555-1.22-.555-1.93s.165-1.305,.495-1.82c.33-.515,.74-.9,1.24-1.15l-1.15-.645c-.28-.155-.445-.435-.445-.73h0c0-.475.42-.86,.935-.86l1.725,.835c.525.255,1.115,.39,1.71,.39h.18c.67,0,1.325-.17,1.895-.485l1.33-.735c.515,0,.935,.385,.935,.86h0c0,.3-.17,.58-.445,.735l-1.165,.645c.51.26,.93,.655,1.265,1.175.335,.52,.5,1.125,.5,1.815s-.19,1.35-.57,1.925c-.38,.575-.915,1.025-1.605,1.355-.69,.33-1.475,.495-2.355,.495s-1.67-.165-2.345-.495Zm.645-5.905c-.485.245-.86,.57-1.12,.985-.26,.415-.39,.865-.39,1.365s.125,.945,.38,1.355c.26,.415,.625,.735,1.115,.975.485,.245,1.06,.365,1.715,.365s1.25-.12,1.74-.365c.485-.245,.86-.57,1.13-.975.26-.415,.39-.865,.39-1.365s-.125-.94-.39-1.365c-.26-.415-.65-.735-1.13-.985-.485-.245-1.06-.365-1.715-.365s-1.25,.12-1.735,.365Z"/>
</svg>
