<svg xmlns="http://www.w3.org/2000/svg" width="241.269" height="212.378" viewBox="0 0 241.269 212.378">
  <path id="Lotus" d="M197.286,56.76c-9.318-7.623-26.794-3.656-37.672-2.9.936-2.987,3.254-4.9,4.5-7.98,2.184-5.216,1.337-7.846,2.051-12.795,1.07-7.267,4.324-11.77-1.427-19.081C149.227-5.743,127.2,9.147,111.11,18.821c-2.719,1.65-19.839,13.687-21.043,12.795A116.717,116.717,0,0,0,76.915,9.994c-4.28-5.439-7-9.451-14.177-9.9-8.515-.58-11.279,1.382-16.763,7.445-1.337,1.471-3.254,5.484-4.191,6.063-.892.535-4.815-.535-8.783,2.274C14.858,28.629,36.7,46.908,47.4,55.69A82.386,82.386,0,0,1,29.57,54.531a27.751,27.751,0,0,1-3.121-.847,46.072,46.072,0,0,0-12.3-1.516,7.076,7.076,0,0,0-2.229.446,9.9,9.9,0,0,0-2.9,1.694C6.61,56.27,5.362,59.034,4.426,61.887,3.177,65.677,1.3,69.421.413,73.3A23.722,23.722,0,0,0,.19,80.834,15.45,15.45,0,0,0,1.216,85.56C2.241,87.923,4.6,88.993,6.61,90.375c2.541,1.694,5.082,3.3,7.713,4.859a86.257,86.257,0,0,0,11.1,6.063A75.484,75.484,0,0,0,54.8,106.692c.981,1.07-11.68,21.087-6.776,25.055,5.662,4.592,16.361,4.012,22.915,4.681,2.764.267,5.484,1.828,8.471,1.828,4.9,0,11.68-5.885,18.546-6.553,10.923-1.07,17.565,5.528,27.73,4.5,4.012-.4,8.6-2.318,11.279-5.439,1.694-1.962,2.452-5.261,3.477-6.286.8-.8,2.987-1.159,4.458-2.5,5.974-5.528,3.611-12.973-.045-19.036,7.4,1.337,10.789-.357,16.986-3.879,2.407-1.337,6.42-4.949,9.05-6.375.669-.624,1.337-1.248,2.051-1.872,1.427-1.6,3.433-2.719,4.949-4.146a32.874,32.874,0,0,1,2.719-2.229c2.363-2.719,8.693-5.35,11.547-7.891a58.487,58.487,0,0,0,5.751-4.592,10.249,10.249,0,0,0-.58-15.2ZM154.042,45.526c.58-4.636-.758-12.795,5.528-12.973C160.462,33.533,156.182,44.589,154.042,45.526ZM94.169,39.061q16.518-10.9,33.08-21.845c4.815-3.21,10.031-7.445,15.827-8.783,3.344-.758,6.91.134,9.986,1.516a26.586,26.586,0,0,1,4.458,2.63,8.888,8.888,0,0,1,1.872,1.783,10.068,10.068,0,0,1,1.337,2.9,18.9,18.9,0,0,1,.758,2.719,7.557,7.557,0,0,1-.089,2.452,12.313,12.313,0,0,1-1.6,4.815,2.439,2.439,0,0,1-1.159,1.159,23.856,23.856,0,0,0-4.726,2.185,36.976,36.976,0,0,0-8.025,6.866c-4.681,5.038-8.471,10.967-13.642,15.514-2.72,2.363-17.476,12.126-20.418,12.973-1.962.58-1.471-1.2-1.293-2.229,1.872-12.572,11.547-10.477,15.737-17.61.936-1.6,1.56-4.726-.535-5.171-2.006-.4-15.158,12.3-17.119,14.846-.4-6.464,3.388-13.865,3.7-19.928a7.306,7.306,0,0,0-.045-1.159,1.733,1.733,0,0,0-.669.089c-1.248.535-1.872,1.917-2.363,3.076a45.909,45.909,0,0,0-1.427,4.993,37.7,37.7,0,0,1-1.07,3.656l-3.834,22.113c-1.694,0-5.573,2.006-6.331-.4-1.115-3.789-.713-13.687-.4-14.8,1.337-4.949-3.254-11.368-2.006-14.311Zm57.822,16.5c-.178.267-4.993,3.388-5.394,2.942l2.809-11.1c1.783.713,3.254,7.044,2.586,8.158Zm-7.267,5.171c-.089.535-7.757,5.751-8.337,5.171l2.987-6.91c.8-1.872,3.032-2.764,3.745-1.115.178.892,1.783,1.872,1.56,2.853Zm-16.9,8.6c-1.56.981-3.254.981-5.528,1.2h-9.05l8.069-5.216a31.223,31.223,0,0,1,3.567-1.962,2.947,2.947,0,0,1,2.987.58c1.293,1.115,1.783,4.28,0,5.394ZM53.6,5.759a1.875,1.875,0,0,1,1.2-.045h0c1.2.758-.134,2.318-1.917,3.165-.847.4-3.968,5.484-5.84,5.35h-.267c-.089,0-.178-.089-.267-.178C45.4,12.714,50.568,6.74,53.688,5.8Zm-10.878,36.2a61.219,61.219,0,0,1-3.076-5.573c-1.694-3.567-5.082-10.12-1.6-13.6.089-.089.223-.089.312-.178,4.235-4.057,10.655-4.859,14.846-8.872C56.675,10.4,61.936,6.784,66.8,9.9,80.482,18.6,87.615,51.99,91.85,66.836c-.446-1.56-4.458-4.191-5.706-5.394-1.962-1.872-3.923-3.745-6.019-5.484-2.407-2.006-9.318-8.248-12.795-7.267-1.159.312-4.592,2.9-5.082,4.057-1.248,2.9,4.681,1.828,6.241,2.1A23.315,23.315,0,0,1,78.7,59.7c4.012,3.121,7.356,7,11.279,10.254a13.247,13.247,0,0,1,2.541,2.452,3.972,3.972,0,0,1,.713,3.344c-.892,2.853-4.324,1.56-6.286.8a78.319,78.319,0,0,0-10.833-3.433C70.228,71.829,65.859,70.179,61.4,65.81c-5.038-4.949-9.184-10.923-13.508-16.5a78.378,78.378,0,0,1-5.171-7.4Zm17.966,59.427c-1.293.134-2.719,0-3.433-1.07-.669-.981-.223-2.675.357-3.611,1.471-2.5,4.592-2.5,7.088-3.121,1.828-.446,3.611-1.248,5.484-1.56,2.006-.312,3.968-.758,5.929-1.115-2.229,2.1-4.191,3.745-5.751,4.993-2.318,1.917-4.949,4.012-7.8,5.038a10.136,10.136,0,0,1-1.917.446ZM3.8,80.745c3.076-4.235,12.082,8.961,13.909,11.1C14.769,92.024,1.84,83.42,3.8,80.745Zm16.183,7.267c-.624-.535-1.248-1.07-1.872-1.65-.669-.624-1.337-1.2-2.006-1.828A65.642,65.642,0,0,1,7.68,75.707a8.346,8.346,0,0,1-1.65-3.254,7.559,7.559,0,0,1,.713-4.414c.58-1.427,1.07-2.9,1.65-4.28,2.006-4.681,7.846-4.637,12.126-4.146,2.675.267,5.35.847,8.025,1.159,5.974.713,11.235,1.65,16.361,5.038,5.439,3.611,9.986,8.337,15.47,11.948A34.871,34.871,0,0,0,74.285,83.6c0,.758-.936,1.115-1.65,1.248a56.088,56.088,0,0,1-13.374.8c-6.776-.4-13.687-2.006-20.329-.49-4.057.936-7.713,2.987-11.68,4.28a7.913,7.913,0,0,1-3.923.49,7.754,7.754,0,0,1-3.3-1.917Zm5.127,7.98A100.1,100.1,0,0,1,37.461,94.12c9.318-.847,11.368.223,12.527,1.382,1.382,1.382,1.2.669,1.337,3.745a2.957,2.957,0,0,1-1.65,2.586c-3.121,1.427-6.732,1.694-13.285-.936-3.21-1.293-7-2.9-11.279-4.859Zm33.124,35.487c-5.082-1.115-7.49-2.1-7.98-4.057-.267-1.159.178-2.675,1.025-2.987,1.025-.4,1.783,1.337,4.77,3.076,2.675,1.56,4.993,1.872,5.216,3.3.223,1.65-2.1.892-3.032.713Zm14.177,1.115c0-2.1,7.044-7.8,8.337-6.464l.223,5.171-8.56,1.337Zm36.512-6.732a4.433,4.433,0,0,1-4.012,1.382c-3.923-.758-3.611-8.381-7.089-8.515-4.28-.134-10.209,11.324-13.33,9.228-1.6-3.254-.758-6.554,1.248-9.184,2.14-2.809,4.949-3.923,8.248-5.038,2.363-.758,3.477-1.516,5.261-1.739a7.953,7.953,0,0,1,7.4,3.522C109.683,119.888,110.486,123.945,108.925,125.862Zm7.089,1.159,4.28-4.681,13.375,2.853c3.21,4.414-16.272,3.076-17.61,1.828Zm20.2-12.215c-1.07.936-7.579,2.185-9.095,1.694-2.274-.713-4.146-4.77-6.509-6.509-18.145-13.375-32.143-4.235-44.938,9.674-5.885,6.375-5.528,13.285-16.139,5.974-6.241-4.28-6.643-8.337-2.719-14.623C62.739,101.565,86.5,101.164,89.666,91c.892-2.942-.669-6.152,1.783-8.381,1.337,0,2.318,6.375,2.363,7.846.089,2.764-3.121,10.61.4,10.655,3.656,0,3.3-12.126,10.7-10.7,4.1.758,22.113,9.719,25.456,12.617,2.1,1.783,8.56,9.407,5.84,11.814Zm17.833-17.877,2.318-7.4C160.016,92.961,159.169,96.438,154.042,96.928Zm9.719-5.528c-2.274,1.516-2.987-1.962-3.254-3.7l12.037-4.636a50.256,50.256,0,0,1-8.827,8.337Zm32.455-25.545c-2.942,8.2-7.713,4.815-12.483,6.063-9.095,2.363-27.373,11.547-37.27,15.559-2.9,1.2-7.891,4.547-10.7,5.127-1.962.4-11.413-1.828-13.731-2.586-4.369-1.427-9.362-4.012-12.483-7.445l17.342-6.108h.178l2.318-.8a.635.635,0,0,0,.178-.089c2.363-1.2,4.547-2.63,6.866-3.923.4-.223.847-.446,1.293-.669,4.815-3.567,10.209-7.98,16.139-9.407,5.8-1.382,35.665-2.987,40.124-.713,2.719,1.382,3.477,1.739,2.274,5.038Z" transform="matrix(0.899, -0.438, 0.438, 0.899, 0, 88.114)" fill="#83a1bf"/>
</svg>
